P2
10 10
252
  0   0   0   0   0   0   0   0   0   0 
 28  56  84 112   0   0   0   0   0   0 
140 140 140 168 112   0   0   0   0   0 
140 140 140 140 168 112   0   0   0   0 
140 140 140 140 140 168 112   0   0   0 
140 140 140 140 140 140 196   0   0   0 
140 140 140 140 140 140 224   0   0   0 
140 140 140 140 140 140 224   0   0   0 
140 140 140 140 140 140 140   0   0   0 
140 140 140 140 140 140 252   0   0   0 
