P2
10 10
88 
  0   0   0   0   0   0   0   0   0   0 
  9  19  29  39   0   0   0   0   0   0 
 49  49  49  59  39   0   0   0   0   0 
 49  49  49  49  59  39   0   0   0   0 
 49  49  49  49  49  59  39   0   0   0 
 49  49  49  49  49  49  69   0   0   0 
 49  49  49  49  49  49  79   0   0   0 
 49  49  49  49  49  49  79   0   0   0 
 49  49  49  49  49  49  49   0   0   0 
 49  49  49  49  49  49  88   0   0   0 
