P2
10 10
252
  0   0   0   0   0   0   0   0   0   0 
 18  36  54  72   0   0   0   0   0   0 
 90  90 108 126 144 162   0   0   0   0 
 90  90  90  90 180 144   0   0   0   0 
 90  90  90  90  90 180 198   0   0   0 
 90  90  90  90  90  90 216   0   0   0 
 90  90  90  90  90  90 234   0   0   0 
 90  90  90  90  90  90 252   0   0   0 
 90  90  90  90  90  90 252   0   0   0 
 90  90  90  90  90  90 252   0   0   0 
