P2
10 10
252
  0  14  28  42  56  56  56  56  56  56 
 70  84  98 112  56  56  56  56  56  56 
126 126 140 154 168 182  56  56  56  56 
126 126 126 126 196 168  56  56  56  56 
126 126 126 126 126 196 210  56  56  56 
126 126 126 126 126 126 224  56  56  56 
126 126 126 126 126 126 238  56  56  56 
126 126 126 126 126 126 252  56  56  56 
126 126 126 126 126 126 252  56  56  56 
126 126 126 126 126 126 252  56  56  56 
